#N canvas 1407 117 1343 831 12;
#X obj 38 449 oscparse;
#X obj 114 286 loadbang;
#X obj 38 32 loadbang;
#X obj 38 85 metro 1000;
#X msg 38 61 1;
#X obj 74 130 + 1;
#X obj 38 130 int;
#X msg 114 340 disconnect;
#X obj 486 365 dac~;
#X obj 396 52 loadbang;
#X msg 396 79 \; pd dsp 1 \;;
#X obj 38 481 list trim;
#X obj 38 527 route adc;
#X obj 38 634 route 1 2 3 4 5 6 7 8 9 10 11 12 13 14 15 16;
#X obj 38 554 unpack s f;
#X obj 38 606 pack f f;
#X obj 38 580 f;
#X obj 356 529 route sw;
#X obj 356 557 unpack s f;
#X obj 356 609 pack f f;
#X obj 356 583 f;
#X obj 356 634 route 1 2 3 4 5 6 7 8 9 10 11 12 13 14 15 16;
#X obj 570 140 osc~;
#X obj 486 234 osc~;
#X obj 552 235 osc~;
#X obj 486 291 *~;
#X obj 552 291 *~;
#X obj 486 205 *~;
#X obj 552 207 *~;
#X obj 570 169 *~ 2;
#X obj 616 197 sel 1;
#X obj 616 249 vline~;
#X obj 119 32 tgl 19 0 empty empty empty 0 -10 0 12 #fcfcfc #000000 #000000 0 1;
#X obj 33 670 s adc_1;
#X obj 355 669 s sw_1;
#X obj 570 84 r adc_1;
#X obj 616 170 r sw_1;
#X obj 390 415 list;
#X obj 38 220 oscformat /disp;
#X obj 38 184 list;
#X obj 390 439 oscformat /disp;
#X msg 280 315 connect 10.0.0.28 1235;
#X obj 38 375 netsend -u -b;
#X msg 114 315 connect 127.0.0.1 1235;
#X obj 38 422 netreceive -u -b 1236;
#X obj 905 130 osc~;
#X obj 821 224 osc~;
#X obj 887 225 osc~;
#X obj 821 281 *~;
#X obj 887 281 *~;
#X obj 821 195 *~;
#X obj 887 197 *~;
#X obj 905 159 *~ 2;
#X obj 951 187 sel 1;
#X obj 951 239 vline~;
#X obj 905 74 r adc_2;
#X obj 821 42 sig~ 110;
#X obj 887 42 sig~ 165;
#X obj 951 160 r sw_2;
#X obj 90 670 s adc_2;
#X obj 405 669 s sw_2;
#X obj 486 319 *~ 0.5;
#X obj 551 320 *~ 0.5;
#X obj 821 309 *~ 0.5;
#X obj 887 310 *~ 0.5;
#X msg 951 213 0 20 \, 0.7 50 20 \, 0 10000 70;
#X msg 616 223 0 20 \, 0.7 50 20 \, 0 10000 70;
#X obj 905 102 expr $f1 * 110 + 55;
#X obj 486 52 sig~ 55;
#X obj 552 52 sig~ 110;
#X obj 570 112 expr $f1 * 55 + 55;
#X obj 743 660 sel 1;
#X obj 743 707 list;
#X obj 743 731 oscformat /cmd;
#X msg 743 684 off;
#X msg 390 387 string 0 1 Hz:\\\ \$1\\\ \\\ \\\ \\\ ;
#X msg 649 409 string 0 2 Hz:\\\ \$1\\\ \\\ \\\ \\\ ;
#X msg 38 157 string 0 0 Pd\\\ Testo\\\ \$1;
#X connect 0 0 11 0;
#X connect 1 0 43 0;
#X connect 2 0 4 0;
#X connect 3 0 6 0;
#X connect 4 0 3 0;
#X connect 5 0 6 1;
#X connect 6 0 5 0;
#X connect 6 0 77 0;
#X connect 7 0 42 0;
#X connect 9 0 10 0;
#X connect 11 0 12 0;
#X connect 11 0 17 0;
#X connect 12 0 14 0;
#X connect 13 0 33 0;
#X connect 13 1 59 0;
#X connect 14 0 16 0;
#X connect 14 1 15 1;
#X connect 15 0 13 0;
#X connect 16 0 15 0;
#X connect 17 0 18 0;
#X connect 18 0 20 0;
#X connect 18 1 19 1;
#X connect 19 0 21 0;
#X connect 20 0 19 0;
#X connect 21 0 34 0;
#X connect 21 1 60 0;
#X connect 21 4 71 0;
#X connect 22 0 29 0;
#X connect 23 0 25 0;
#X connect 24 0 26 0;
#X connect 25 0 61 0;
#X connect 26 0 62 0;
#X connect 27 0 23 0;
#X connect 28 0 24 0;
#X connect 29 0 27 1;
#X connect 29 0 28 1;
#X connect 30 0 66 0;
#X connect 31 0 26 1;
#X connect 31 0 25 1;
#X connect 32 0 3 0;
#X connect 35 0 70 0;
#X connect 36 0 30 0;
#X connect 37 0 40 0;
#X connect 38 0 42 0;
#X connect 39 0 38 0;
#X connect 40 0 42 0;
#X connect 41 0 42 0;
#X connect 43 0 42 0;
#X connect 44 0 0 0;
#X connect 45 0 52 0;
#X connect 46 0 48 0;
#X connect 47 0 49 0;
#X connect 48 0 63 0;
#X connect 49 0 64 0;
#X connect 50 0 46 0;
#X connect 51 0 47 0;
#X connect 52 0 50 1;
#X connect 52 0 51 1;
#X connect 53 0 65 0;
#X connect 54 0 49 1;
#X connect 54 0 48 1;
#X connect 55 0 67 0;
#X connect 56 0 50 0;
#X connect 57 0 51 0;
#X connect 58 0 53 0;
#X connect 61 0 8 0;
#X connect 62 0 8 1;
#X connect 63 0 8 0;
#X connect 64 0 8 1;
#X connect 65 0 54 0;
#X connect 66 0 31 0;
#X connect 67 0 45 0;
#X connect 67 0 76 0;
#X connect 68 0 27 0;
#X connect 69 0 28 0;
#X connect 70 0 22 0;
#X connect 70 0 75 0;
#X connect 71 0 74 0;
#X connect 72 0 73 0;
#X connect 73 0 42 0;
#X connect 74 0 72 0;
#X connect 75 0 37 0;
#X connect 76 0 37 0;
#X connect 77 0 39 0;
